<svg width="180" height="52" viewBox="0 0 180 52" fill="none" xmlns="http://www.w3.org/2000/svg">
  <!-- Top horizontal lines (golden tan) -->
  <rect x="70" y="14" width="20" height="2" fill="#C9A869"/>
  <rect x="70" y="18" width="20" height="2" fill="#C9A869"/>
  
  <!-- Three vertical pillars (golden tan) -->
  <rect x="70" y="24" width="5" height="28" fill="#C9A869"/>
  <rect x="77.5" y="24" width="5" height="28" fill="#C9A869"/>
  <rect x="85" y="24" width="5" height="28" fill="#C9A869"/>
  
  <!-- P -->
  <path d="M0 15h10c8 0 8 12 0 12H5v12H0V15zm5 4v4h5c3 0 3-4 0-4H5z" fill="#4A5F7F"/>
  
  <!-- i with pillar -->
  <circle cx="22" cy="15" r="2.5" fill="#4A5F7F"/>
  <rect x="19.5" y="20" width="5" height="19" fill="#4A5F7F"/>
  
  <!-- l -->
  <rect x="32" y="12" width="5" height="27" fill="#4A5F7F"/>
  
  <!-- l -->
  <rect x="43" y="12" width="5" height="27" fill="#4A5F7F"/>
  
  <!-- a -->
  <path d="M56 26c0-3 2-6 7-6 4.5 0 6.5 3 6.5 6v13h-4.5v-2c-1 1.5-2.5 2.5-4.5 2.5-3.5 0-5.5-2-5.5-5 0-3.2 2.2-5 6-5h4v-1c0-1.5-1-2.5-2.5-2.5-1.2 0-2.2.5-2.5 1.5L56 26zm9 7v-2h-3.5c-1.5 0-2.5.8-2.5 2s1 2 2.5 2c1.8 0 3.5-1 3.5-2z" fill="#4A5F7F"/>
  
  <!-- r -->
  <path d="M100 20h4.5v3.5c1-2.2 2.8-3.5 5.5-3.5v5c-3.5 0-5.5 1.5-5.5 5V39H100V20z" fill="#4A5F7F"/>
  
  <!-- s -->
  <path d="M115 32c0 1.5 1.2 2.5 3 2.5 1.5 0 2.5-.7 2.5-1.8 0-1-.7-1.5-2.5-2l-2.5-.7c-2.8-.8-4.5-2.2-4.5-5 0-3.2 2.8-5.5 7-5.5 4.5 0 7 2.5 7 5.5h-4.5c0-1.2-1-2-2.5-2s-2.5.7-2.5 1.7c0 .8.5 1.3 2 1.7l2.5.7c3.5 1 5 2.5 5 5.2 0 3.5-3 5.7-7.5 5.7-4.8 0-7.5-2.5-7.5-6h4.5z" fill="#4A5F7F"/>
</svg>
